<?xml version="1.0" encoding="UTF-8"?>
<svg version="1.1" xmlns="http://www.w3.org/2000/svg" width="512" height="512">
<path d="M0 0 C5.36797882 5.26097592 10.02727821 11.42629915 13.3515625 18.1796875 C15.75885295 21.94107883 18.32560267 23.52873958 22.05859375 25.8671875 C31.89300206 32.03254058 40.27455668 42.48297593 42.98828125 53.91015625 C44.47692866 63.72242357 43.21272467 72.7353049 37.3515625 80.9296875 C33.12004499 86.03480863 27.84274098 89.66045151 22.3515625 93.3046875 C22.94324219 93.66820313 23.53492188 94.03171875 24.14453125 94.40625 C31.28301287 98.94786147 36.08700278 102.83720334 38.3515625 111.3046875 C39.38739221 120.06825393 39.66739616 129.59109795 34.9765625 137.3203125 C31.23637941 141.88765146 26.15327662 145.88963528 20.3515625 147.3046875 C17.34297417 147.44746796 14.36050651 147.4226853 11.3515625 147.3046875 C11.20460938 148.61179688 11.20460938 148.61179688 11.0546875 149.9453125 C8.85571334 167.46127905 2.86677871 181.88233905 -8.6484375 195.3046875 C-9.4321875 196.3359375 -10.2159375 197.3671875 -11.0234375 198.4296875 C-16.7702271 204.72379039 -24.0250846 210.41827229 -31.6484375 214.3046875 C-32.3084375 214.3046875 -32.9684375 214.3046875 -33.6484375 214.3046875 C-33.3184375 220.9046875 -32.9884375 227.5046875 -32.6484375 234.3046875 C-30.69736084 234.47073486 -28.74628418 234.63678223 -26.73608398 234.80786133 C-20.2295959 235.36362295 -13.72382983 235.92729925 -7.21847439 236.49615955 C-3.2811874 236.8401723 0.65630808 237.18117869 4.59448242 237.51489258 C8.40773061 237.83813903 12.22016457 238.16983288 16.0322094 238.50696373 C17.47371279 238.63303451 18.91546898 238.75625434 20.35748482 238.87632179 C46.81344689 241.08602671 46.81344689 241.08602671 57.6640625 246.9921875 C58.32792969 247.34031494 58.99179687 247.68844238 59.67578125 248.04711914 C65.4488911 251.16883844 70.56684076 254.79633958 75.3515625 259.3046875 C76.39183594 260.28308594 76.39183594 260.28308594 77.453125 261.28125 C94.20123693 278.54667812 96.49778976 301.09006989 96.51269531 323.96606445 C96.51733174 325.63428353 96.5223575 327.30250155 96.52774048 328.97071838 C96.54077573 333.47445016 96.54729042 337.9781671 96.55175114 342.48191476 C96.5546926 345.297848 96.55879909 348.11377726 96.56325531 350.92970848 C96.57689868 359.747637 96.58658419 368.56555634 96.5904572 377.38349468 C96.59494868 387.55134385 96.61256013 397.71905931 96.6414578 407.88686782 C96.66305557 415.75969668 96.67316024 423.63248782 96.67449832 431.505346 C96.6755465 436.20307748 96.68145873 440.90068272 96.69931793 445.59838295 C96.71576856 450.01026846 96.71796886 454.4219323 96.70917892 458.83383751 C96.70840729 460.45237191 96.71276793 462.07091811 96.72263718 463.68942261 C96.73532049 465.89882983 96.7295006 468.10744722 96.71905518 470.31684875 C96.72052174 471.55289006 96.7219883 472.78893137 96.7234993 474.06242847 C96.30955288 477.67089508 95.6454025 479.49975341 93.3515625 482.3046875 C89.04757786 484.60667153 84.86200787 484.58528207 80.09777832 484.55636978 C78.8504168 484.5607301 78.8504168 484.5607301 77.57785606 484.56517851 C74.77904459 484.57250299 71.98045066 484.56552373 69.18164062 484.55865479 C67.15973549 484.56095825 65.13783119 484.564134 63.11592865 484.56810927 C57.55008464 484.57648164 51.98430896 484.57232092 46.41846466 484.56613684 C40.41975942 484.56162333 34.42106616 484.56859063 28.42236328 484.57409668 C17.34689275 484.58248895 6.27144108 484.58174347 -4.80402958 484.57627374 C-15.03512688 484.57124573 -25.26621617 484.56992778 -35.49731445 484.57231903 C-36.51467535 484.57254819 -36.51467535 484.57254819 -37.552589 484.57278197 C-40.30568041 484.57340463 -43.05877181 484.57404143 -45.81186321 484.5747015 C-71.64621752 484.58082165 -97.4805579 484.57526916 -123.31491005 484.5645077 C-146.27505166 484.55501626 -169.23517109 484.5558655 -192.1953125 484.56542969 C-217.98194469 484.57613532 -243.76856457 484.58038764 -269.55519867 484.57420516 C-272.30331929 484.57356371 -275.05143992 484.57293803 -277.79956055 484.57231903 C-278.81457172 484.5720818 -278.81457172 484.5720818 -279.85008818 484.57183977 C-290.07559927 484.56956333 -300.30110147 484.57222817 -310.52661133 484.57727814 C-322.1516468 484.58299059 -333.77666116 484.58138696 -345.4016943 484.57071665 C-351.3363945 484.56544943 -357.27104961 484.56342104 -363.20574951 484.57001495 C-368.63375049 484.57595481 -374.06166437 484.57273187 -379.4896574 484.56205985 C-381.45795448 484.55981746 -383.42625885 484.56098077 -385.39455128 484.56581143 C-388.0613579 484.5718566 -390.72786269 484.56569191 -393.39465332 484.55636978 C-394.16621828 484.56105211 -394.93778324 484.56573445 -395.73272896 484.57055867 C-399.80330315 484.5419462 -403.02295186 484.2165666 -406.6484375 482.3046875 C-410.82113909 477.7866353 -410.08098066 472.05997476 -410.046875 466.2734375 C-410.04974518 465.2047644 -410.05261536 464.13609131 -410.05557251 463.03503418 C-410.05761098 460.77904733 -410.05209636 458.52304273 -410.03955078 456.26708984 C-410.02349471 452.81698019 -410.03940754 449.36804203 -410.05859375 445.91796875 C-410.05661128 443.72395575 -410.05276753 441.52994348 -410.046875 439.3359375 C-410.05294769 438.30561401 -410.05902039 437.27529053 -410.0652771 436.21374512 C-409.97401411 426.90550303 -409.97401411 426.90550303 -406.6484375 423.3046875 C-402.76164574 421.06891119 -399.23655303 421.07043098 -394.81640625 421.109375 C-393.52412109 421.11582031 -392.23183594 421.12226563 -390.90039062 421.12890625 C-389.5455702 421.14561423 -388.19075249 421.16254408 -386.8359375 421.1796875 C-385.46159499 421.18972747 -384.08724547 421.19885154 -382.71289062 421.20703125 C-379.35789433 421.23057508 -376.00325551 421.26346183 -372.6484375 421.3046875 C-372.99777344 420.56863281 -373.34710938 419.83257812 -373.70703125 419.07421875 C-374.16207031 418.09839844 -374.61710937 417.12257813 -375.0859375 416.1171875 C-375.53839844 415.15425781 -375.99085938 414.19132812 -376.45703125 413.19921875 C-378.50650131 408.22001444 -378.7650252 403.84687018 -378.7109375 398.4921875 C-378.70191406 397.33074219 -378.69289063 396.16929687 -378.68359375 394.97265625 C-378.67199219 394.09222656 -378.66039062 393.21179688 -378.6484375 392.3046875 C-379.421875 392.33949219 -380.1953125 392.37429688 -380.9921875 392.41015625 C-389.40533656 392.62881483 -394.91473446 391.81775685 -401.8984375 387.1171875 C-408.60369378 380.25953903 -409.80188107 372.76979394 -409.81640625 363.44140625 C-409.81973465 362.6905928 -409.82306305 361.93977936 -409.82649231 361.16621399 C-409.83153942 359.58192555 -409.83390132 357.99762655 -409.83374023 356.41333008 C-409.83592097 354.01039768 -409.85408413 351.6079291 -409.87304688 349.20507812 C-409.87598256 347.65885572 -409.87796618 346.11263116 -409.87890625 344.56640625 C-409.88609177 343.85779953 -409.89327728 343.14919281 -409.90068054 342.41911316 C-409.86380552 334.22121021 -408.25598481 326.88684888 -402.23046875 320.89453125 C-396.77055789 316.08026537 -392.52207471 315.04536718 -385.3359375 315.1796875 C-384.08167969 315.19773437 -382.82742188 315.21578125 -381.53515625 315.234375 C-380.10623047 315.26917969 -380.10623047 315.26917969 -378.6484375 315.3046875 C-378.68324219 314.26828125 -378.71804688 313.231875 -378.75390625 312.1640625 C-378.78205232 310.79428708 -378.80935161 309.42449409 -378.8359375 308.0546875 C-378.86107422 307.37277344 -378.88621094 306.69085938 -378.91210938 305.98828125 C-378.95727318 302.88703302 -378.83141335 300.65591049 -377.38671875 297.8828125 C-374.36706694 295.1413758 -371.00750377 295.17903042 -367.06300354 295.16424561 C-366.14758789 295.15853546 -365.23217224 295.15282532 -364.28901672 295.14694214 C-363.29202255 295.14582428 -362.29502838 295.14470642 -361.26782227 295.14355469 C-359.68428452 295.13610733 -359.68428452 295.13610733 -358.0687561 295.12850952 C-354.5757787 295.11390165 -351.08284668 295.10708898 -347.58984375 295.1015625 C-345.16373188 295.09581095 -342.73762002 295.09005321 -340.31150818 295.08428955 C-335.22484119 295.07378419 -330.13818999 295.06793813 -325.05151367 295.06445312 C-318.53003508 295.0589623 -312.00876464 295.03491954 -305.48735142 295.00648117 C-300.47653083 294.98787141 -295.46576061 294.98265012 -290.45490837 294.98111725 C-288.05032142 294.97808762 -285.64573541 294.97004873 -283.24118233 294.95693207 C-279.88010852 294.93990294 -276.51954655 294.94174412 -273.15844727 294.94824219 C-272.16347733 294.9390274 -271.16850739 294.92981262 -270.14338684 294.9203186 C-264.6559152 294.95360045 -260.73297219 295.22015281 -256.6484375 299.3046875 C-256.54439063 300.68374897 -256.50883164 302.06805904 -256.50126648 303.45101929 C-256.49053352 304.7923291 -256.49053352 304.7923291 -256.47958374 306.16073608 C-256.47689484 307.14973907 -256.47420593 308.13874207 -256.47143555 309.15771484 C-256.46486435 310.19357727 -256.45829315 311.2294397 -256.45152283 312.29669189 C-256.43172241 315.74467026 -256.420108 319.19260479 -256.41015625 322.640625 C-256.40608072 323.817495 -256.4020052 324.99436501 -256.39780617 326.20689774 C-256.37690981 332.4440824 -256.36262749 338.68124488 -256.35327148 344.91845703 C-256.3422414 351.34869553 -256.30789079 357.77858468 -256.26809978 364.20870018 C-256.24188133 369.16057963 -256.23357464 374.11237686 -256.22999001 379.06431961 C-256.22513214 381.43325771 -256.21354114 383.80219233 -256.19495201 386.17106247 C-256.17046599 389.50022195 -256.17154405 392.82849189 -256.1784668 396.15771484 C-256.15925171 397.61085587 -256.15925171 397.61085587 -256.13964844 399.09335327 C-256.19782766 406.82178172 -258.19733722 413.40248695 -261.6484375 420.3046875 C-255.0484375 420.6346875 -248.4484375 420.9646875 -241.6484375 421.3046875 C-241.65843025 419.05535149 -241.65843025 419.05535149 -241.66862488 416.76057434 C-241.72957641 402.59298982 -241.7746581 388.42545209 -241.80387402 374.25777149 C-241.81929391 366.97493509 -241.84028916 359.69219706 -241.87475586 352.40942383 C-241.90480865 346.05623465 -241.92404788 339.70311676 -241.93070298 333.34985846 C-241.93458864 329.99079928 -241.94522965 326.63210434 -241.96562767 323.27308083 C-241.98756854 319.5085123 -241.99039743 315.74435902 -241.98901367 311.97973633 C-241.9997995 310.88568481 -242.01058533 309.7916333 -242.021698 308.66442871 C-241.94606475 289.51037914 -234.69604006 273.46113343 -221.26953125 259.90234375 C-204.7948274 244.40735625 -186.95245596 241.60689996 -165.21679688 239.70800781 C-160.88286851 239.32903634 -156.55159715 238.92389869 -152.22029114 238.51615906 C-143.40742036 237.68664951 -134.5934936 236.86815076 -125.77734375 236.07421875 C-124.92952332 235.99626068 -124.08170288 235.91830261 -123.20819092 235.83798218 C-122.02147797 235.73219345 -122.02147797 235.73219345 -120.81079102 235.62426758 C-119.7816433 235.53125114 -119.7816433 235.53125114 -118.73170471 235.43635559 C-116.37491027 235.28739984 -114.00993446 235.3046875 -111.6484375 235.3046875 C-111.6484375 228.7046875 -111.6484375 222.1046875 -111.6484375 215.3046875 C-113.2984375 214.6446875 -114.9484375 213.9846875 -116.6484375 213.3046875 C-137.3306379 200.56209958 -149.23281636 181.70689757 -155.94921875 158.6640625 C-156.68653019 155.12167235 -156.77206263 151.91270986 -156.6484375 148.3046875 C-157.9478125 148.3871875 -159.2471875 148.4696875 -160.5859375 148.5546875 C-166.91715205 148.51493105 -171.87892775 146.73069217 -176.6640625 142.5390625 C-184.09429693 134.60931652 -185.18556143 127.61389242 -184.9296875 116.8671875 C-184.31835334 109.12362148 -181.32183679 103.57666703 -175.6484375 98.3046875 C-170.47151973 94.1174746 -165.16255295 93.56682494 -158.6484375 93.3046875 C-158.98617187 92.16773437 -159.32390625 91.03078125 -159.671875 89.859375 C-166.83264399 65.2982316 -169.98943224 38.83867746 -157.6484375 15.3046875 C-146.01349434 -3.16425386 -129.01760207 -13.55628693 -107.79907227 -18.42724609 C-72.78025718 -25.56135114 -28.58733204 -23.93141477 0 0 Z M-391.24243164 332.796875 C-393.20806223 336.30285822 -393.2028312 339.51535919 -393.14453125 343.4296875 C-393.14598648 344.21359863 -393.14744171 344.99750977 -393.14894104 345.80517578 C-393.14728415 347.45934778 -393.13574622 349.11353552 -393.11499023 350.76757812 C-393.08603423 353.29624056 -393.09438451 355.82280555 -393.10742188 358.3515625 C-393.10118403 359.96094767 -393.09279272 361.57032623 -393.08203125 363.1796875 C-393.08496689 363.9339502 -393.08790253 364.68821289 -393.09092712 365.46533203 C-393.03401377 368.64000803 -392.84784225 370.94069297 -391.30883789 373.75 C-387.4521164 377.36117519 -384.13604417 376.3046875 -378.6484375 376.3046875 C-378.6484375 361.4546875 -378.6484375 346.6046875 -378.6484375 331.3046875 C-387.70250831 330.47363407 -387.70250831 330.47363407 -391.24243164 332.796875 Z " fill="#010100" transform="translate(412.6484375,24.6953125)"/>
<path d="M0 0 C0.88171875 0.04640625 1.7634375 0.0928125 2.671875 0.140625 C4.239375 0.223125 5.806875 0.305625 7.421875 0.390625 C7.421875 5.670625 7.421875 10.950625 7.421875 16.390625 C5.771875 17.050625 4.121875 17.710625 2.421875 18.390625 C1.00145679 21.23146141 1.10735228 23.24539778 1.421875 26.390625 C2.78339841 28.75168144 2.78339841 28.75168144 5.421875 30.390625 C8.6001484 30.93456151 11.70648855 30.85777031 14.921875 30.765625 C16.20384766 30.76369141 16.20384766 30.76369141 17.51171875 30.76171875 C21.69979912 30.70291575 24.77408068 30.64408483 28.421875 28.390625 C29.80737697 25.61962106 29.6096217 23.4571544 29.421875 20.390625 C27.48196139 16.86701503 27.48196139 16.86701503 22.421875 15.390625 C22.421875 10.440625 22.421875 5.490625 22.421875 0.390625 C58.061875 0.390625 93.701875 0.390625 130.421875 0.390625 C130.421875 5.340625 130.421875 10.290625 130.421875 15.390625 C128.441875 16.380625 126.461875 17.370625 124.421875 18.390625 C123.00145679 21.23146141 123.10735228 23.24539778 123.421875 26.390625 C124.78339841 28.75168144 124.78339841 28.75168144 127.421875 30.390625 C130.6001484 30.93456151 133.70648855 30.85777031 136.921875 30.765625 C138.20384766 30.76369141 138.20384766 30.76369141 139.51171875 30.76171875 C143.69979912 30.70291575 146.77408068 30.64408483 150.421875 28.390625 C152.00555602 25.22326296 151.84244206 22.8753235 151.421875 19.390625 C150.43058594 18.81570313 149.43929687 18.24078125 148.41796875 17.6484375 C145.421875 15.390625 145.421875 15.390625 144.8359375 11.71875 C144.87556707 10.3581348 144.94679407 8.99813303 145.046875 7.640625 C145.08748047 6.59455078 145.08748047 6.59455078 145.12890625 5.52734375 C145.19932717 3.81376795 145.30694587 2.10179198 145.421875 0.390625 C146.79397164 0.25341534 148.17022909 0.15763425 149.546875 0.078125 C150.31257812 0.02011719 151.07828125 -0.03789062 151.8671875 -0.09765625 C155.70523245 0.63591503 157.92854788 2.51827844 160.421875 5.390625 C162.89986113 9.14544716 165.04027802 13.05624485 167.171875 17.015625 C168.31182903 19.09151443 169.45242516 21.16705143 170.59375 23.2421875 C171.0897168 24.15822754 171.58568359 25.07426758 172.09667969 26.01806641 C173.46367098 28.53840069 173.46367098 28.53840069 175.421875 31.390625 C175.421875 56.470625 175.421875 81.550625 175.421875 107.390625 C110.081875 107.390625 44.741875 107.390625 -22.578125 107.390625 C-22.578125 3.42092803 -22.578125 3.42092803 0 0 Z " fill="#A5513F" transform="translate(263.578125,339.609375)"/>
<path d="M0 0 C156.42 0 312.84 0 474 0 C474 10.23 474 20.46 474 31 C317.58 31 161.16 31 0 31 C0 20.77 0 10.54 0 0 Z " fill="#BB6A58" transform="translate(19,462)"/>
<path d="M0 0 C2.39787845 1.04942445 4.75969408 2.13272278 7.125 3.25 C13.28737148 6.05463194 19.44838328 8.17036758 26 9.875 C26.77617676 10.07770508 27.55235352 10.28041016 28.35205078 10.48925781 C50.21761592 15.92864007 70.60165348 13.29822615 90 2 C91.35427599 1.0285504 92.6976273 0.0400015 94 -1 C96.84477432 0.33593721 99.28572959 1.84835262 101.78515625 3.75 C102.48060547 4.2759375 103.17605469 4.801875 103.89257812 5.34375 C104.60865234 5.8903125 105.32472656 6.436875 106.0625 7 C107.49037357 8.08400787 108.91873993 9.16736702 110.34765625 10.25 C110.97679932 10.72953125 111.60594238 11.2090625 112.25415039 11.703125 C113.80041925 12.8517448 115.3972986 13.9315324 117 15 C117.38768005 16.98634338 117.38768005 16.98634338 117.40405273 19.45532227 C117.42307899 20.8443148 117.42307899 20.8443148 117.44248962 22.2613678 C117.43955399 23.26953049 117.43661835 24.27769318 117.43359375 25.31640625 C117.4388356 26.36086411 117.44407745 27.40532196 117.44947815 28.48143005 C117.45591812 30.70497754 117.454536 32.92855901 117.44604492 35.15209961 C117.43766353 38.4972347 117.46605786 41.8405865 117.49804688 45.18554688 C117.54947416 60.4211816 116.76578662 75.56882631 109.4375 89.3125 C108.92932739 90.2881189 108.92932739 90.2881189 108.41088867 91.28344727 C98.77445547 108.86718736 80.94960267 120.40950419 62 126 C41.84439531 129.61410843 23.66415062 125.28483278 6.85546875 113.86328125 C-8.65008578 101.78412898 -17.92448878 85.30697778 -21 66 C-21.83110212 58.64264633 -22.07540912 51.28131697 -22.18066406 43.88232422 C-22.22690888 41.62642372 -22.30900201 39.3709754 -22.42675781 37.11767578 C-23.4439913 17.54303466 -23.4439913 17.54303466 -17.52539062 9.80859375 C-6.79344225 -2.06325473 -6.79344225 -2.06325473 0 0 Z " fill="#F4D9B8" transform="translate(292,106)"/>
<path d="M0 0 C1.37857771 1.62944134 2.72452966 3.28864645 4 5 C3.00742187 5.06316406 2.01484375 5.12632813 0.9921875 5.19140625 C-13.80693881 6.41091294 -25.89616274 11.67363439 -36 23 C-40.29853568 28.58967095 -44 33.78408234 -44 41 C-43.67 41.99 -43.34 42.98 -43 44 C-39.89625681 44.9642014 -37.23831439 45.45595467 -34 45 C-31.04884612 42.44112629 -29.1288826 39.25065915 -27 36 C-21.73549145 29.01416049 -15.7854716 24.8927358 -8 21 C7.27086416 19.90020931 18.13671726 22.80331136 30 33 C40.27820182 43.1945031 40.27820182 43.1945031 40.3125 51.4375 C40.21892494 55.84722454 39.88601527 58.51687813 37 62 C36.34 62.94875 35.68 63.8975 35 64.875 C30.82008345 69.79630848 24.77939626 73.25566327 18.96875 75.9375 C15.78329897 76.03862543 14.39771254 74.24880791 12.0625 72.1875 C11.10472656 71.36507812 10.14695312 70.54265625 9.16015625 69.6953125 C8.6511377 69.25606445 8.14211914 68.81681641 7.61767578 68.36425781 C4.81799042 66.00315884 1.9096067 63.78561176 -1 61.5625 C-1.55163818 61.13799561 -2.10327637 60.71349121 -2.67163086 60.27612305 C-7.47764941 56.4162162 -7.47764941 56.4162162 -13.1875 54.4375 C-17.92424992 55.13636474 -19.33981209 56.83237327 -22.6953125 60.05078125 C-36.74070479 71.92985033 -54.70833552 71.16405627 -72 70 C-83.21915609 68.54512066 -93.53669144 63.18497388 -103.60498047 58.30322266 C-104.49330566 57.87702637 -105.38163086 57.45083008 -106.296875 57.01171875 C-107.08416992 56.62459717 -107.87146484 56.23747559 -108.68261719 55.83862305 C-111.31367022 54.88648786 -113.22198519 54.72242863 -116 55 C-118.53014729 56.74266147 -118.53014729 56.74266147 -120.875 59.125 C-122.16664063 60.34896484 -122.16664063 60.34896484 -123.484375 61.59765625 C-124.31453125 62.39042969 -125.1446875 63.18320313 -126 64 C-127.365484 65.1984301 -128.73903793 66.38781264 -130.125 67.5625 C-131.07375 68.366875 -132.0225 69.17125 -133 70 C-136.20347378 61.3048569 -137.35110111 52.78648984 -137.25 43.5625 C-137.24105713 42.63945068 -137.23211426 41.71640137 -137.22290039 40.76538086 C-136.97148755 26.01018292 -133.62740086 13.43312452 -123.1875 2.5 C-94.38269529 -24.04219165 -30.38926764 -24.5983058 0 0 Z " fill="#BD6B59" transform="translate(400,35)"/>
<path d="M0 0 C30.03 0 60.06 0 91 0 C91.20054405 23.05810883 91.20054405 23.05810883 91.24414062 32.92578125 C91.2739706 39.64554715 91.30916874 46.36497073 91.37719727 53.08447266 C91.43172888 58.50505945 91.46146525 63.92527888 91.47438622 69.34611893 C91.48358816 71.40889896 91.5015573 73.47166005 91.52865028 75.53428268 C91.79831653 96.9249951 91.79831653 96.9249951 86 104 C78.48536134 111.04517848 70.34174596 111.31709365 60.4453125 111.3359375 C59.22979706 111.3425943 58.01428162 111.3492511 56.76193237 111.35610962 C54.19498199 111.36621856 51.62800542 111.37092718 49.06103516 111.37060547 C45.14571602 111.37497687 41.23152601 111.41131303 37.31640625 111.44921875 C34.81771217 111.45508766 32.31901276 111.45905656 29.8203125 111.4609375 C28.65549347 111.47530853 27.49067444 111.48967957 26.29055786 111.50448608 C18.35556035 111.46014676 12.85474896 110.43838235 6.7578125 105 C6.21898437 104.34 5.68015625 103.68 5.125 103 C4.57070313 102.34 4.01640625 101.68 3.4453125 101 C1.03275822 97.66154651 -0.25149743 95.06602939 -0.24050903 90.91241455 C-0.24325836 90.10757126 -0.24600769 89.30272797 -0.24884033 88.47349548 C-0.24164978 87.59955643 -0.23445923 86.72561737 -0.22705078 85.82519531 C-0.22734283 84.898022 -0.22763489 83.97084869 -0.22793579 83.01557922 C-0.2265432 79.95299907 -0.21098518 76.89066263 -0.1953125 73.828125 C-0.19158212 71.70391981 -0.18873527 69.5797129 -0.18673706 67.45550537 C-0.17910257 61.86593878 -0.15945557 56.2764762 -0.1373291 50.68695068 C-0.11326879 43.97972259 -0.10408882 37.27245971 -0.09242249 30.56520081 C-0.07303115 20.37672821 -0.03470717 10.18848381 0 0 Z " fill="#F3D8B7" transform="translate(50,336)"/>
<path d="M0 0 C0 15.51 0 31.02 0 47 C-4.29 47.33 -8.58 47.66 -13 48 C-22.11172189 51.6227328 -25.79290491 57.30533365 -30.3984375 65.55078125 C-32.07063182 68.53942508 -33.86081971 71.15307059 -36.0390625 73.79296875 C-48.44426932 89.91577429 -45.38047008 111.70220386 -45 131 C-57.87 131 -70.74 131 -84 131 C-84.16043524 111.0971175 -84.16043524 111.0971175 -84.1953125 102.53515625 C-84.21911365 96.7200641 -84.24710007 90.90522672 -84.30175781 85.09033203 C-84.34560122 80.3959285 -84.36921734 75.70179863 -84.37950897 71.00720596 C-84.38683193 69.22685572 -84.40112938 67.44651841 -84.42292023 65.66628647 C-84.64054579 47.12968507 -81.2985077 31.48540631 -68.0625 17.5625 C-57.46782472 7.77170086 -46.02533461 3.75852833 -31.8125 2.3125 C-30.72694824 2.19221436 -29.64139648 2.07192871 -28.52294922 1.94799805 C-19.05905041 0.92974822 -9.52651672 0 0 0 Z " fill="#EB9E42" transform="translate(271,278)"/>
<path d="M0 0 C8.5696875 0.680625 8.5696875 0.680625 17.3125 1.375 C19.09180908 1.51341309 20.87111816 1.65182617 22.7043457 1.79443359 C41.78924738 3.31944442 57.41270385 6.21955419 71 21 C79.81993853 31.35910428 84.17839915 43.58378309 84.11352539 57.0949707 C84.11367142 57.89549362 84.11381744 58.69601654 84.1139679 59.52079773 C84.11327355 62.1558202 84.10550356 64.79077119 84.09765625 67.42578125 C84.09579037 69.25709494 84.09436727 71.08840914 84.09336853 72.91972351 C84.08955672 77.73163235 84.07973785 82.54351084 84.06866455 87.35540771 C84.05661971 93.13323591 84.05204183 98.91107427 84.04621124 104.68891144 C84.03652538 113.45929538 84.01735946 122.22961277 84 131 C71.13 131 58.26 131 45 131 C45.144375 124.60625 45.28875 118.2125 45.4375 111.625 C45.36914651 91.30594338 41.30866062 79.23345121 29 63 C27.20514506 60.37567321 25.42516715 57.74237188 23.65722656 55.09985352 C20.55611292 51.17046659 17.69745578 49.86693755 13 48 C8.71 47.67 4.42 47.34 0 47 C0 31.49 0 15.98 0 0 Z " fill="#EB9E42" transform="translate(409,278)"/>
<path d="M0 0 C0.21914063 0.556875 0.43828125 1.11375 0.6640625 1.6875 C5.35772416 12.98281586 11.12906863 18.80214855 22.1875 24.03515625 C31.41508973 27.68208969 41.37550419 27.01944149 50.43359375 23.26171875 C61.31778208 17.91074032 67.64609783 11.29453446 72 0 C74.81288705 0.14019692 77.62516885 0.28687955 80.4375 0.4375 C81.64116211 0.49647461 81.64116211 0.49647461 82.86914062 0.55664062 C88.88671875 0.88671875 88.88671875 0.88671875 90 2 C90 17.84 90 33.68 90 50 C54.36 50 18.72 50 -18 50 C-18 2 -18 2 -17 1 C-11.36215156 0.00073146 -5.70829302 -0.10378715 0 0 Z " fill="#E79B41" transform="translate(304,275)"/>
<path d="M0 0 C7.08637297 5.4624125 11.05357936 11.4989324 13 20.3125 C14.44451034 33.84372955 11.37013407 45.93320506 4 57.3125 C3.443125 58.17875 2.88625 59.045 2.3125 59.9375 C-5.36505763 67.82255919 -14.75835974 72.45332234 -25.6875 73.75 C-32.55811068 72.84256085 -39.53689519 70.97151964 -44 65.3125 C-50.91647184 53.3142073 -52.7221599 42.20973219 -50.3515625 28.5859375 C-47.35245364 17.8455391 -41.27687096 8.64203175 -32 2.3125 C-21.14111955 -3.49398469 -11.29642216 -6.35423747 0 0 Z " fill="#020100" transform="translate(359,358.6875)"/>
<path d="M0 0 C0.72574219 0.07476562 1.45148438 0.14953125 2.19921875 0.2265625 C9.50336311 1.29304198 14.03793523 5.21471204 18.50390625 10.921875 C24.39012299 19.70727312 26.07256153 28.50335853 25 39 C22.65839961 50.41695557 17.53429201 61.84054995 8 69 C-0.97380865 74.15119925 -8.54073354 77.31218568 -19 76 C-27.21898287 72.89352251 -32.54201946 67.247907 -36.21484375 59.40625 C-40.8347245 48.22646741 -41.2400477 38.75632998 -37.328125 27.14453125 C-35.23196918 22.18157409 -32.42414589 18.13385135 -29 14 C-28.49984375 13.36449219 -27.9996875 12.72898437 -27.484375 12.07421875 C-21.02634061 4.71923514 -9.89506825 -1.50941719 0 0 Z " fill="#030201" transform="translate(103,353)"/>
<path d="M0 0 C1.15048828 0.10828125 1.15048828 0.10828125 2.32421875 0.21875 C9.95726769 0.85705374 17.52974133 1.10919315 25.1875 1.125 C26.56844849 1.13176758 26.56844849 1.13176758 27.97729492 1.13867188 C28.84459229 1.13673828 29.71188965 1.13480469 30.60546875 1.1328125 C31.76792114 1.13112061 31.76792114 1.13112061 32.95385742 1.12939453 C35.20182578 1.07479355 35.20182578 1.07479355 38 0 C39.39439664 -0.06665376 40.79169875 -0.08538199 42.1875 -0.0625 C44.0746875 -0.0315625 44.0746875 -0.0315625 46 0 C46.11728126 3.66639248 46.18760891 7.3322952 46.25 11 C46.28351563 12.02996094 46.31703125 13.05992187 46.3515625 14.12109375 C46.45117592 21.9407472 45.20930412 27.19063692 40.140625 33.20703125 C34.06613376 38.36532857 28.1770752 41.69234986 20.01171875 41.35546875 C16.2634298 40.69314973 13.21070666 38.97901316 10 37 C9.113125 36.46375 8.22625 35.9275 7.3125 35.375 C2.28619782 30.21285182 -0.28744918 24.18857363 -0.48828125 16.9921875 C-0.45559467 14.9525452 -0.39677517 12.9131626 -0.3125 10.875 C-0.28994141 9.823125 -0.26738281 8.77125 -0.24414062 7.6875 C-0.18586671 5.12344757 -0.10412878 2.56252924 0 0 Z " fill="#F0CA99" transform="translate(317,246)"/>
<path d="M0 0 C3.33211392 0.25032575 4.31517531 0.59430024 7.0625 2.6875 C8.87152031 6.6344534 8.7777831 9.65175867 7.4375 13.6875 C6.58648936 15.11110421 5.68897305 16.50781396 4.75 17.875 C2.65604026 20.77719418 2.65604026 20.77719418 2.875 24.25 C3.390625 25.054375 3.90625 25.85875 4.4375 26.6875 C5.13013394 27.89289783 5.81734645 29.10142204 6.5 30.3125 C7.139375 31.42625 7.77875 32.54 8.4375 33.6875 C10.33747045 39.38741135 10.39764075 45.40890296 7.75 50.875 C2.02907183 60.89171408 2.02907183 60.89171408 -1.5625 62.6875 C-5.93612014 63.18262681 -7.88205244 63.17973866 -11.5 60.5625 C-13.5625 57.6875 -13.5625 57.6875 -14.25 54.9375 C-13.36699274 50.76328388 -11.32403118 48.23020887 -8.6796875 44.93359375 C-7.26373889 42.70304998 -7.26373889 42.70304998 -8.21875 40.1640625 C-9.44743125 37.89957438 -10.77081517 35.77488137 -12.1875 33.625 C-15.29771535 28.05253082 -15.58021664 22.93220928 -14.5625 16.6875 C-13.30672283 13.04318339 -11.63617005 9.92725044 -9.5625 6.6875 C-9.18996094 6.04296875 -8.81742187 5.3984375 -8.43359375 4.734375 C-6.09946262 1.25351046 -4.02404111 0.25685369 0 0 Z " fill="#121212" transform="translate(77.5625,246.3125)"/>
<path d="M0 0 C2.66894515 2.45823895 3.80332593 4.15430149 4.625 7.6875 C3.66214676 12.79062216 0.84448514 16.71634082 -2 21 C-1.54882812 21.74636719 -1.09765625 22.49273437 -0.6328125 23.26171875 C3.37289742 29.97942845 6.99604213 36.12859375 5.62890625 44.1875 C3.88548827 50.42482147 0.37078873 55.28165457 -4 60 C-7.09173752 61.54586876 -9.59429552 61.29359521 -13 61 C-15.4375 59.5 -15.4375 59.5 -17 57 C-17.58321304 53.04711163 -17.94706497 50.5445422 -15.8359375 47.1015625 C-14.4375 45.3125 -14.4375 45.3125 -12.99609375 43.73828125 C-11.77265908 41.98211831 -11.77265908 41.98211831 -12.19140625 39.58203125 C-13.02510483 36.91983435 -14.08238241 34.77341115 -15.5 32.375 C-18.7751253 26.79586214 -19.57994416 22.41160491 -19 16 C-17.11767199 10.03929464 -13.4879395 3.14851634 -7.99609375 -0.234375 C-4.95883401 -1.39935134 -3.07337187 -0.96042871 0 0 Z " fill="#121212" transform="translate(123,248)"/>
<path d="M0 0 C12.87 0 25.74 0 39 0 C39 7.59 39 15.18 39 23 C26.13 23 13.26 23 0 23 C0 15.41 0 7.82 0 0 Z " fill="#EDC797" transform="translate(187,424)"/>
<path d="M0 0 C12.54 0 25.08 0 38 0 C38 7.59 38 15.18 38 23 C25.46 23 12.92 23 0 23 C0 15.41 0 7.82 0 0 Z " fill="#F1CA9A" transform="translate(455,424)"/>
<path d="M0 0 C2.77364592 2.77364592 3.18209779 5.28083602 3.3125 9.0625 C3.17490169 17.53855564 -0.48035819 24.27368208 -6.18359375 30.37109375 C-8.56365645 32.50547256 -11.03132537 33.84149283 -14 35 C-13.59299751 26.45294762 -10.87952966 21.01388983 -5.9375 14.125 C-3.18867269 9.69140756 -1.64925748 4.93022716 0 0 Z " fill="#C64C03" transform="translate(354,380)"/>
<path d="M0 0 C0 7.59 0 15.18 0 23 C-7 23 -7 23 -9.40234375 21.43359375 C-12.60701907 16.55214455 -11.75861669 10.58737683 -11 5 C-7.63916386 -0.33779857 -6.52279381 0 0 0 Z " fill="#F0CA99" transform="translate(256,133)"/>
<path d="M0 0 C8 0 8 0 9.96875 1.59765625 C12.08192949 6.52040393 11.70119653 11.77410131 11 17 C8.875 20.3125 8.875 20.3125 6 22 C4.02 22 2.04 22 0 22 C0 14.74 0 7.48 0 0 Z " fill="#F1CA9A" transform="translate(424,135)"/>
<path d="M0 0 C-0.16015489 8.16789958 -4.02328172 14.03856756 -8 21 C-10.28258852 25.22651405 -12.39576837 29.16614698 -13 34 C-13.66 34 -14.32 34 -15 34 C-17.03151674 26.97295031 -17.08701179 19.46420831 -14.0625 12.75 C-11.4608295 8.12979205 -5.8026908 0 0 0 Z " fill="#E26B03" transform="translate(95,371)"/>
<path d="M0 0 C-0.56644864 7.93028093 -3.16054834 13.28271672 -7.5625 19.8125 C-10.59703579 24.50479146 -11.77854868 29.5978088 -13 35 C-16.62857298 30.89729348 -16.6220171 27.61932622 -16.47265625 22.30078125 C-15.20588376 13.45431218 -10.55835791 6.6637797 -3.734375 1.109375 C-2 0 -2 0 0 0 Z " fill="#E06A03" transform="translate(339,373)"/>
<path d="M0 0 C2.48495911 2.48495911 2.30662412 4.05722561 2.38012695 7.45947266 C2.35001933 20.17635848 2.35001933 20.17635848 -2 26 C-2.38542969 26.56074219 -2.77085938 27.12148438 -3.16796875 27.69921875 C-5.91772186 31.3744551 -8.80568408 33.24423985 -13 35 C-13.59421309 27.86944295 -11.24687568 23.57270832 -7.50390625 17.62109375 C-3.91210296 11.89749698 -1.59466173 6.57448259 0 0 Z " fill="#C74C03" transform="translate(110,377)"/>
</svg>
